<?xml version="1.0" encoding="UTF-8" ?>
<!DOCTYPE svg PUBLIC "-//W3C//DTD SVG 1.1//EN" "http://www.w3.org/Graphics/SVG/1.1/DTD/svg11.dtd">
<svg width="22pt" height="15pt" viewBox="0 0 22 15" version="1.1" xmlns="http://www.w3.org/2000/svg">
<g id="#d72c36ff">
<path fill="#d72c36" opacity="1.00" d=" M 6.70 0.31 C 9.67 2.77 12.97 4.89 15.59 7.74 C 12.53 9.92 9.73 12.44 6.70 14.66 C 6.69 13.19 6.69 11.72 6.68 10.25 C 4.45 10.25 2.23 10.25 0.00 10.25 L 0.00 4.75 C 2.23 4.75 4.45 4.75 6.68 4.76 C 6.68 3.27 6.69 1.79 6.70 0.31 Z" />
<path fill="#d72c36" opacity="1.00" d=" M 12.55 0.02 C 15.85 2.30 18.83 4.98 22.00 7.42 L 22.00 7.47 C 18.93 10.07 15.84 12.65 12.55 14.98 C 12.11 11.06 16.47 9.85 18.70 7.54 C 16.50 5.15 12.13 3.94 12.55 0.02 Z" />
</g>
</svg>
